<?xml version="1.0" standalone="no"?><!DOCTYPE svg PUBLIC "-//W3C//DTD SVG 1.1//EN" "http://www.w3.org/Graphics/SVG/1.1/DTD/svg11.dtd"><svg t="1718196231308" class="icon" viewBox="0 0 1024 1024" version="1.1" xmlns="http://www.w3.org/2000/svg" p-id="6974" xmlns:xlink="http://www.w3.org/1999/xlink" width="1000" height="1000"><path d="M746.666667 64a170.666667 170.666667 0 0 1 170.666666 170.666667v554.666666a170.666667 170.666667 0 0 1-170.666666 170.666667H298.666667a170.666667 170.666667 0 0 1-170.666667-170.666667V234.666667a170.666667 170.666667 0 0 1 170.666667-170.666667h448z m0 74.666667H298.666667a96 96 0 0 0-95.893334 91.477333L202.666667 234.666667v554.666666a96 96 0 0 0 91.477333 95.893334L298.666667 885.333333h448a96 96 0 0 0 95.893333-91.477333L842.666667 789.333333V234.666667a96 96 0 0 0-91.477334-95.893334L746.666667 138.666667z" fill="#000000" p-id="6975"></path><path d="M224 325.333333a37.333333 37.333333 0 0 1 3.072 74.538667l-3.072 0.128H106.666667a37.333333 37.333333 0 0 1-3.072-74.538667L106.666667 325.333333h117.333333zM224 624a37.333333 37.333333 0 0 1 3.072 74.538667l-3.072 0.128H106.666667a37.333333 37.333333 0 0 1-3.072-74.538667L106.666667 624h117.333333zM693.333333 346.666667a37.333333 37.333333 0 0 1 37.205334 34.261333l0.128 3.072v256a37.333333 37.333333 0 0 1-74.538667 3.072L656 640V384c0-20.608 16.725333-37.333333 37.333333-37.333333z" fill="#000000" p-id="6976"></path></svg>